<?xml version="1.0" encoding="UTF-8" standalone="no"?>
<!DOCTYPE svg PUBLIC "-//W3C//DTD SVG 1.1//EN" "http://www.w3.org/Graphics/SVG/1.1/DTD/svg11.dtd">
<svg width="100%" height="100%" viewBox="0 0 50 50" version="1.1" xmlns="http://www.w3.org/2000/svg" xmlns:xlink="http://www.w3.org/1999/xlink" xml:space="preserve" xmlns:serif="http://www.serif.com/" style="fill-rule:evenodd;clip-rule:evenodd;stroke-linejoin:round;stroke-miterlimit:2;">
    <g transform="matrix(0.0644924,0,0,0.0644924,8.49021,8.48996)">
        <path d="M392,214.512L392,127.96C392,126.912 391.792,125.872 391.384,124.896C391.008,123.992 390.456,123.192 389.792,122.496C389.736,122.432 389.72,122.352 389.656,122.296C389.552,122.192 389.416,122.16 389.312,122.072C388.64,121.464 387.896,120.928 387.056,120.576C386.192,120.216 385.272,120.072 384.352,120.032C384.224,120.024 384.128,119.96 384,119.96L297.488,119.96C284.952,0.088 263.232,0 256,0C251.576,0 247.824,3.552 247.824,7.976C247.824,12.392 251.232,15.944 255.648,15.944C259.728,17.536 272.856,40.344 281.384,119.96L230.64,119.96C233.184,96.08 236.408,75 240.152,57.88L240.528,58.856C241.752,62.048 244.784,64 248,64C248.952,64 249.92,63.832 250.856,63.472C254.984,61.896 257.04,57.272 255.464,53.144L246.288,29.144C246.24,29.016 246.128,28.944 246.088,28.816C245.952,28.52 245.784,28.256 245.608,27.976C245.504,27.8 245.488,27.584 245.368,27.416C245.248,27.248 245.056,27.152 244.92,26.984C244.72,26.744 244.544,26.488 244.32,26.272C244.088,26.056 243.816,25.888 243.56,25.696C243.216,25.44 242.88,25.208 242.504,25.008C242.24,24.864 241.992,24.736 241.704,24.624C241.576,24.576 241.496,24.472 241.368,24.432C241.184,24.368 240.992,24.408 240.8,24.36C240.392,24.248 240.008,24.184 239.592,24.136C239.288,24.112 239,24.08 238.696,24.088C238.344,24.088 238.024,24.128 237.688,24.176C237.296,24.232 236.928,24.336 236.544,24.448C236.352,24.504 236.152,24.472 235.96,24.544C235.848,24.584 235.784,24.688 235.672,24.728C235.336,24.872 235.048,25.048 234.736,25.232C234.568,25.336 234.384,25.352 234.232,25.456L211.408,41.456C207.792,43.984 206.912,48.976 209.456,52.6C211.008,54.816 213.488,56 216.008,56C217.592,56 219.192,55.528 220.592,54.544L225.224,51.296C220.904,70.056 217.272,93.344 214.472,119.96L200,119.96C199.944,119.96 199.896,119.992 199.832,119.992C198.848,120.016 197.864,120.192 196.936,120.576C196.032,120.952 195.224,121.512 194.52,122.176C194.464,122.232 194.384,122.248 194.336,122.304L122.32,194.416C120.72,196.024 119.968,198.144 120.016,200.248L120.016,214.52C0.088,227.032 0,248.76 0,256C0,279.208 58.768,291.184 120.016,297.376L120.016,384.04C120.016,388.464 123.592,392.04 128.016,392.04L214.632,392.04C220.824,453.272 232.8,512 256,512C263.232,512 284.952,511.912 297.488,392.04L311.992,392.04C313.032,392.04 314.072,391.832 315.048,391.424C316.032,391.016 316.92,390.432 317.656,389.688L389.68,317.664C390.056,317.288 390.232,316.824 390.52,316.4C390.808,315.96 391.176,315.584 391.376,315.096C391.808,314.088 392.008,313.008 392,311.928L392,297.528C418.632,294.728 441.936,291.096 460.696,286.768L457.456,291.4C454.92,295.016 455.792,300.008 459.408,302.544C460.808,303.528 462.408,304 463.992,304C466.512,304 468.992,302.816 470.544,300.592L486.544,277.768C486.664,277.6 486.672,277.416 486.768,277.248C486.936,276.968 487.12,276.704 487.256,276.4C487.32,276.272 487.416,276.176 487.464,276.04C487.544,275.848 487.504,275.64 487.568,275.44C487.68,275.064 487.768,274.704 487.824,274.312C487.88,273.984 487.912,273.672 487.92,273.328C487.928,273 487.904,272.688 487.864,272.36C487.824,271.96 487.744,271.592 487.648,271.2C487.6,271.008 487.64,270.816 487.576,270.624C487.536,270.496 487.432,270.424 487.392,270.304C487.28,270.016 487.136,269.752 486.992,269.472C486.792,269.096 486.552,268.76 486.296,268.416C486.112,268.176 485.952,267.912 485.744,267.688C485.528,267.456 485.264,267.272 485.016,267.072C484.848,266.936 484.768,266.752 484.592,266.624C484.416,266.496 484.192,266.472 484.008,266.368C483.736,266.208 483.488,266.04 483.192,265.912C483.064,265.856 482.984,265.744 482.856,265.704L458.856,256.528C454.712,254.952 450.104,257.008 448.528,261.136C446.952,265.264 449.016,269.888 453.136,271.464L454.12,271.84C436.984,275.6 415.896,278.808 391.992,281.352L391.992,230.616C471.632,239.128 494.456,252.256 495.992,255.992C495.992,260.416 499.568,263.992 503.992,263.992C508.416,263.992 511.992,260.416 511.992,255.992C512,248.768 511.912,227.04 392,214.512ZM364.696,135.96L308.664,192.072L225.392,192.072C226.24,172.408 227.488,153.576 229.072,135.96L364.696,135.96ZM303.984,376.04L229.008,376.04C227.056,354.6 225.552,330.392 224.728,303.544C242.08,303.968 253.888,304 256,304C272.36,304 288.384,303.728 303.984,303.24L303.984,376.04ZM256,288C245.08,288 234.544,287.88 224.328,287.68C224.12,277.456 224,266.92 224,256C224,239.728 224.28,223.704 224.784,208.072L303.984,208.072L303.984,287.224C288.336,287.72 272.296,288 256,288ZM136.016,208.072L208.76,208.072C208.272,223.656 208,239.656 208,256C208,258.112 208.032,269.92 208.456,287.272C181.632,286.44 157.44,284.952 136.016,283.024L136.016,208.072ZM209.344,192.072L147.288,192.072L203.32,135.96L212.928,135.96C211.376,153.568 210.176,172.408 209.344,192.072ZM15.944,256.36C17.536,252.28 40.36,239.144 120.016,230.624L120.016,281.44C54.656,274.424 18.856,263.36 15.944,256.36ZM136.016,376.04L136.016,298.88C162.248,301.112 187.984,302.368 208.92,303.072C209.632,324.024 210.88,349.776 213.12,376.032L136.016,376.032L136.016,376.04ZM256.36,496.056C248.896,493.144 237.68,457.36 230.6,392.04L281.376,392.04C272.848,471.656 259.744,494.464 256.36,496.056ZM376,308.712L319.984,364.728L319.984,302.656C339.608,301.824 358.416,300.632 376,299.08L376,308.712ZM319.984,286.608L319.984,203.392L376,147.296L376,282.936C358.416,284.512 339.608,285.752 319.984,286.608Z" style="fill:white;fill-rule:nonzero;"/>
    </g>
</svg>
