<?xml version="1.0" encoding="UTF-8" standalone="no"?>
<!DOCTYPE svg PUBLIC "-//W3C//DTD SVG 1.1//EN" "http://www.w3.org/Graphics/SVG/1.1/DTD/svg11.dtd">
<svg width="100%" height="100%" viewBox="0 0 50 50" version="1.1" xmlns="http://www.w3.org/2000/svg" xmlns:xlink="http://www.w3.org/1999/xlink" xml:space="preserve" xmlns:serif="http://www.serif.com/" style="fill-rule:evenodd;clip-rule:evenodd;stroke-linejoin:round;stroke-miterlimit:2;">
    <g id="Shape" transform="matrix(0.0613166,0,0,0.0613166,9.30273,8.66874)">
        <path d="M498.057,164.105L429.363,141.235C428.494,140.946 427.583,140.799 426.667,140.8L379.255,140.8C373.819,131.246 364.073,124.935 353.13,123.886C342.188,122.836 331.42,127.179 324.267,135.526C317.868,128.042 308.514,123.733 298.667,123.733C288.82,123.733 279.466,128.042 273.067,135.526C266.668,128.042 257.314,123.733 247.467,123.733C237.62,123.733 228.266,128.042 221.867,135.526C214.714,127.179 203.945,122.836 193.003,123.886C182.061,124.935 172.314,131.246 166.878,140.8L25.6,140.8C11.462,140.8 0,152.262 0,166.4L0,200.533C0,214.672 11.462,226.133 25.6,226.133L130.756,226.133L115.814,263.484C112.147,272.798 112.711,283.247 117.359,292.113L168.866,375.023C170.047,377.393 170.664,380.004 170.667,382.652L170.667,490.667C170.667,500.092 178.308,507.733 187.733,507.733L307.2,507.733C316.626,507.733 324.267,500.092 324.267,490.667L324.267,403.251C324.269,400.616 324.879,398.017 326.05,395.657L357.845,352.802C372.601,333.573 381.562,310.533 383.676,286.387C383.889,283.375 384,280.363 384,277.333L384,226.133L426.667,226.133C427.583,226.134 428.494,225.987 429.363,225.698L498.057,202.829C506.388,200.049 512.007,192.25 512.007,183.467C512.007,174.683 506.388,166.885 498.057,164.105ZM435.2,161.169L463.155,170.479C460.015,178.853 460.015,188.081 463.155,196.454L435.2,205.764L435.2,161.169ZM349.867,140.8C359.292,140.8 366.933,148.441 366.933,157.867L366.933,217.6C366.933,227.026 359.292,234.667 349.867,234.667C340.441,234.667 332.8,227.026 332.8,217.6L332.8,157.867C332.8,148.441 340.441,140.8 349.867,140.8ZM298.667,140.8C308.092,140.8 315.733,148.441 315.733,157.867L315.733,217.6C315.733,227.026 308.092,234.667 298.667,234.667C289.241,234.667 281.6,227.026 281.6,217.6L281.6,157.867C281.6,148.441 289.241,140.8 298.667,140.8ZM247.467,140.8C256.892,140.8 264.533,148.441 264.533,157.867L264.533,185.173C261.68,184.079 258.655,183.501 255.599,183.467L230.4,183.467L230.4,157.867C230.4,148.441 238.041,140.8 247.467,140.8ZM196.267,140.8C205.692,140.8 213.333,148.441 213.333,157.867L213.333,183.467L179.2,183.467L179.2,157.867C179.2,148.441 186.841,140.8 196.267,140.8ZM162.133,186.112C151.17,190.069 142.325,198.374 137.685,209.067L119.467,209.067L119.467,157.867L162.133,157.867L162.133,186.112ZM102.4,209.067L85.333,209.067L85.333,157.867L102.4,157.867L102.4,209.067ZM17.067,200.533L17.067,166.4C17.067,161.687 20.887,157.867 25.6,157.867L68.267,157.867L68.267,209.067L25.6,209.067C20.887,209.067 17.067,205.246 17.067,200.533ZM366.652,285.175C364.762,306.078 356.953,326.008 344.141,342.63L311.936,386.031C311.694,386.363 311.475,386.711 311.279,387.072C308.598,392.055 307.196,397.627 307.2,403.285L307.2,490.667L187.733,490.667L187.733,382.652C187.701,377.093 186.334,371.624 183.748,366.703L132.267,283.802C130.087,279.442 129.876,274.358 131.686,269.833L152.969,216.627C156.826,206.885 166.256,200.499 176.734,200.533L255.599,200.533C258.151,200.532 260.574,201.656 262.221,203.605C263.796,205.445 264.474,207.89 264.073,210.278C260.369,232.107 246.17,243.2 221.867,243.2L196.267,243.2C192.141,243.196 188.603,246.144 187.863,250.203C187.123,254.261 189.393,258.268 193.254,259.721C193.886,259.959 256,284.075 256,337.067C256,341.779 259.821,345.6 264.533,345.6C269.246,345.6 273.067,341.779 273.067,337.067C273.067,299.52 249.412,274.603 228.873,260.011C245.74,259.757 261.484,251.506 271.292,237.781C277.357,246.154 286.925,251.286 297.256,251.707C307.586,252.128 317.54,247.792 324.267,239.94C334.854,252.403 352.9,255.384 366.933,246.989L366.933,277.333C366.933,279.953 366.839,282.573 366.652,285.175ZM384,157.867L418.133,157.867L418.133,209.067L384,209.067L384,157.867ZM492.663,186.633L479.317,191.078C477.383,186.188 477.383,180.745 479.317,175.855L492.663,180.301C494.018,180.763 494.928,182.036 494.928,183.467C494.928,184.898 494.018,186.17 492.663,186.633Z" style="fill:white;fill-rule:nonzero;"/>
    </g>
    <g id="Shape1" serif:id="Shape" transform="matrix(0.0613166,0,0,0.0613166,9.30273,8.66874)">
        <path d="M110.933,21.333C106.221,21.333 102.4,25.154 102.4,29.867L102.4,46.933C102.4,51.646 106.221,55.467 110.933,55.467C115.646,55.467 119.467,51.646 119.467,46.933L119.467,29.867C119.467,25.154 115.646,21.333 110.933,21.333Z" style="fill:white;fill-rule:nonzero;"/>
    </g>
    <g id="Shape2" serif:id="Shape" transform="matrix(0.0613166,0,0,0.0613166,9.30273,8.66874)">
        <path d="M93.867,55.467L76.8,55.467C72.087,55.467 68.267,59.287 68.267,64C68.267,68.713 72.087,72.533 76.8,72.533L93.867,72.533C98.579,72.533 102.4,68.713 102.4,64C102.4,59.287 98.579,55.467 93.867,55.467Z" style="fill:white;fill-rule:nonzero;"/>
    </g>
    <g id="Shape3" serif:id="Shape" transform="matrix(0.0613166,0,0,0.0613166,9.30273,8.66874)">
        <path d="M102.4,98.133C102.4,102.846 106.221,106.667 110.933,106.667C115.646,106.667 119.467,102.846 119.467,98.133L119.467,81.067C119.467,76.354 115.646,72.533 110.933,72.533C106.221,72.533 102.4,76.354 102.4,81.067L102.4,98.133Z" style="fill:white;fill-rule:nonzero;"/>
    </g>
    <g id="Shape4" serif:id="Shape" transform="matrix(0.0613166,0,0,0.0613166,9.30273,8.66874)">
        <path d="M128,72.533L145.067,72.533C149.779,72.533 153.6,68.713 153.6,64C153.6,59.287 149.779,55.467 145.067,55.467L128,55.467C123.287,55.467 119.467,59.287 119.467,64C119.467,68.713 123.287,72.533 128,72.533Z" style="fill:white;fill-rule:nonzero;"/>
    </g>
    <g id="Shape5" serif:id="Shape" transform="matrix(0.0613166,0,0,0.0613166,9.30273,8.66874)">
        <path d="M401.067,354.133C396.354,354.133 392.533,357.954 392.533,362.667L392.533,379.733C392.533,384.446 396.354,388.267 401.067,388.267C405.779,388.267 409.6,384.446 409.6,379.733L409.6,362.667C409.6,357.954 405.779,354.133 401.067,354.133Z" style="fill:white;fill-rule:nonzero;"/>
    </g>
    <g id="Shape6" serif:id="Shape" transform="matrix(0.0613166,0,0,0.0613166,9.30273,8.66874)">
        <path d="M384,388.267L366.933,388.267C362.221,388.267 358.4,392.087 358.4,396.8C358.4,401.513 362.221,405.333 366.933,405.333L384,405.333C388.713,405.333 392.533,401.513 392.533,396.8C392.533,392.087 388.713,388.267 384,388.267Z" style="fill:white;fill-rule:nonzero;"/>
    </g>
    <g id="Shape7" serif:id="Shape" transform="matrix(0.0613166,0,0,0.0613166,9.30273,8.66874)">
        <path d="M392.533,430.933C392.533,435.646 396.354,439.467 401.067,439.467C405.779,439.467 409.6,435.646 409.6,430.933L409.6,413.867C409.6,409.154 405.779,405.333 401.067,405.333C396.354,405.333 392.533,409.154 392.533,413.867L392.533,430.933Z" style="fill:white;fill-rule:nonzero;"/>
    </g>
    <g id="Shape8" serif:id="Shape" transform="matrix(0.0613166,0,0,0.0613166,9.30273,8.66874)">
        <path d="M418.133,405.333L435.2,405.333C439.913,405.333 443.733,401.513 443.733,396.8C443.733,392.087 439.913,388.267 435.2,388.267L418.133,388.267C413.421,388.267 409.6,392.087 409.6,396.8C409.6,401.513 413.421,405.333 418.133,405.333Z" style="fill:white;fill-rule:nonzero;"/>
    </g>
    <g id="Shape9" serif:id="Shape" transform="matrix(0.0613166,0,0,0.0613166,9.30273,8.66874)">
        <path d="M81.801,299.401C84.064,299.4 86.234,298.501 87.834,296.9L99.9,284.826C103.134,281.477 103.087,276.155 99.796,272.863C96.504,269.572 91.182,269.526 87.834,272.759L75.767,284.834C73.328,287.275 72.598,290.944 73.918,294.133C75.239,297.321 78.35,299.4 81.801,299.401Z" style="fill:white;fill-rule:nonzero;"/>
    </g>
    <g id="Shape10" serif:id="Shape" transform="matrix(0.0613166,0,0,0.0613166,9.30273,8.66874)">
        <path d="M51.627,296.9C54.975,300.134 60.297,300.088 63.589,296.796C66.88,293.505 66.927,288.182 63.693,284.834L51.627,272.759C48.278,269.526 42.956,269.572 39.664,272.863C36.373,276.155 36.327,281.477 39.561,284.826L51.627,296.9Z" style="fill:white;fill-rule:nonzero;"/>
    </g>
    <g id="Shape11" serif:id="Shape" transform="matrix(0.0613166,0,0,0.0613166,9.30273,8.66874)">
        <path d="M39.561,333.107C42.893,336.438 48.294,336.438 51.627,333.107L63.693,321.033C66.927,317.684 66.88,312.362 63.589,309.07C60.297,305.779 54.975,305.733 51.627,308.966L39.561,321.041C36.229,324.373 36.229,329.775 39.561,333.107Z" style="fill:white;fill-rule:nonzero;"/>
    </g>
    <g id="Shape12" serif:id="Shape" transform="matrix(0.0613166,0,0,0.0613166,9.30273,8.66874)">
        <path d="M75.767,321.033L87.834,333.107C91.182,336.341 96.504,336.295 99.796,333.003C103.087,329.712 103.134,324.389 99.9,321.041L87.834,308.966C85.691,306.748 82.518,305.858 79.535,306.639C76.551,307.42 74.221,309.75 73.44,312.734C72.66,315.717 73.549,318.89 75.767,321.033Z" style="fill:white;fill-rule:nonzero;"/>
    </g>
    <g id="Shape13" serif:id="Shape" transform="matrix(0.0613166,0,0,0.0613166,9.30273,8.66874)">
        <path d="M346.121,76.757C352.302,82.862 356.432,90.738 357.939,99.294C358.722,103.757 362.581,107.024 367.113,107.059C371.651,107.037 375.523,103.772 376.311,99.302C379.53,81.769 393.258,68.054 410.795,64.853C415.27,64.079 418.539,60.196 418.539,55.654C418.539,51.112 415.27,47.229 410.795,46.455C402.211,44.94 394.314,40.788 388.198,34.577C381.995,28.477 377.843,20.598 376.32,12.032C375.538,7.572 371.683,4.306 367.155,4.267C362.617,4.289 358.744,7.554 357.956,12.023C354.769,29.57 341.03,43.298 323.482,46.473C319.006,47.247 315.737,51.129 315.737,55.671C315.737,60.214 319.006,64.096 323.482,64.87C332.08,66.382 339.994,70.537 346.121,76.757ZM367.113,35.251C369.625,39.411 372.643,43.243 376.098,46.66C379.522,50.122 383.36,53.148 387.524,55.671C383.377,58.173 379.559,61.183 376.158,64.631C372.691,68.053 369.662,71.891 367.138,76.058C364.634,71.915 361.627,68.097 358.187,64.691C354.748,61.215 350.893,58.177 346.709,55.646C355.063,50.602 362.065,43.603 367.113,35.251Z" style="fill:white;fill-rule:nonzero;"/>
    </g>
</svg>
