<?xml version="1.0" encoding="UTF-8" standalone="no"?>
<!DOCTYPE svg PUBLIC "-//W3C//DTD SVG 1.1//EN" "http://www.w3.org/Graphics/SVG/1.1/DTD/svg11.dtd">
<svg width="100%" height="100%" viewBox="0 0 50 50" version="1.1" xmlns="http://www.w3.org/2000/svg" xmlns:xlink="http://www.w3.org/1999/xlink" xml:space="preserve" xmlns:serif="http://www.serif.com/" style="fill-rule:evenodd;clip-rule:evenodd;stroke-linejoin:round;stroke-miterlimit:2;">
    <g transform="matrix(0.04913,0.0569505,-0.0569505,0.04913,15.0524,-14.0557)">
        <path d="M512,23.516C511.03,7.107 503.534,-1.231 496,-9.816L496,170.055L480,162.055L480,-22.787C474.652,-25.592 469.319,-27.425 464,-28.331L464,163L456,169L448,163L448,-29.034C442.599,-28.504 437.258,-27.282 432,-25.085L432,162.055L416,170.055L416,-15C409.147,-8.667 403.552,-0.693 400,9.946L400,185.32L456,273.984L512,185.32L512,23.516ZM456,244.016L440.199,219L471.801,219L456,244.016ZM481.902,203L430.098,203L419.488,186.199L439.199,176.367L456,189L472.801,176.367L492.512,186.199L481.902,203Z" style="fill:white;fill-rule:nonzero;"/>
    </g>
    <g transform="matrix(51.5423,0,0,51.5423,2.00741,38.8243)">
        <path d="M0.16,0L0.45,0L0.45,-0.112L0.28,-0.112L0.28,-0.476L0.16,-0.476L0.16,0ZM0.18,-0.02L0.18,-0.456L0.26,-0.456L0.26,-0.092L0.43,-0.092L0.43,-0.02L0.18,-0.02Z" style="fill:white;fill-rule:nonzero;"/>
    </g>
    <g transform="matrix(0.875769,0,0,1.14011,-6.2164,-1.52441)">
        <rect x="18.807" y="9.119" width="1.177" height="5.636" style="fill:white;"/>
    </g>
    <g transform="matrix(0.875769,0,0,1.14011,-1.05281,-1.52441)">
        <rect x="18.807" y="9.119" width="1.177" height="5.636" style="fill:white;"/>
    </g>
    <g transform="matrix(5.36254e-17,0.875769,-1.54998,9.4909e-17,31.8617,-5.98194)">
        <rect x="18.807" y="9.119" width="1.177" height="5.636" style="fill:white;"/>
    </g>
    <g transform="matrix(5.36254e-17,0.875769,-1.54998,9.4909e-17,31.8617,-2.20385)">
        <rect x="18.807" y="9.119" width="1.177" height="5.636" style="fill:white;"/>
    </g>
    <g transform="matrix(5.36254e-17,0.875769,-1.14011,6.98115e-17,40.9926,16.576)">
        <rect x="18.807" y="9.119" width="1.177" height="5.636" style="fill:white;"/>
    </g>
    <g transform="matrix(5.36254e-17,0.875769,-1.14011,6.98115e-17,40.9926,21.3229)">
        <rect x="18.807" y="9.119" width="1.177" height="5.636" style="fill:white;"/>
    </g>
    <g transform="matrix(-0.875769,1.07251e-16,-1.75807e-16,-1.43557,45.4501,52.9987)">
        <rect x="18.807" y="9.119" width="1.177" height="5.636" style="fill:white;"/>
    </g>
    <g transform="matrix(-0.875769,1.07251e-16,-1.75807e-16,-1.43557,41.672,52.9987)">
        <rect x="18.807" y="9.119" width="1.177" height="5.636" style="fill:white;"/>
    </g>
</svg>
