<?xml version="1.0" encoding="UTF-8" standalone="no"?>
<!DOCTYPE svg PUBLIC "-//W3C//DTD SVG 1.1//EN" "http://www.w3.org/Graphics/SVG/1.1/DTD/svg11.dtd">
<svg width="100%" height="100%" viewBox="0 0 50 50" version="1.1" xmlns="http://www.w3.org/2000/svg" xmlns:xlink="http://www.w3.org/1999/xlink" xml:space="preserve" xmlns:serif="http://www.serif.com/" style="fill-rule:evenodd;clip-rule:evenodd;stroke-linejoin:round;stroke-miterlimit:2;">
    <g transform="matrix(0.0156732,-0.0626938,0.0626938,0.0156732,-1.33138,41.3137)">
        <rect x="248" y="306.523" width="16" height="98.955" style="fill:white;"/>
    </g>
    <g transform="matrix(0.0156732,-0.0626938,0.0626938,0.0156732,0.674847,39.7473)">
        <rect x="248" y="274.523" width="16" height="98.955" style="fill:white;"/>
    </g>
    <g transform="matrix(0.0156732,-0.0626938,0.0626938,0.0156732,3.879,40.8784)">
        <rect x="284" y="288.631" width="16" height="24.739" style="fill:white;"/>
    </g>
    <g transform="matrix(0.0156732,-0.0626938,0.0626938,0.0156732,2.01552,36.6823)">
        <rect x="228" y="258.138" width="16" height="57.723" style="fill:white;"/>
    </g>
    <g transform="matrix(0.0156732,-0.0626938,0.0626938,0.0156732,4.68724,36.6145)">
        <rect x="248" y="210.523" width="16" height="98.955" style="fill:white;"/>
    </g>
    <g transform="matrix(0.0646232,0,0,0.0646232,8.45645,7.83798)">
        <path d="M272,120C285.166,120 296,109.166 296,96C296,82.834 285.166,72 272,72C258.834,72 248,82.834 248,96C248.015,109.16 258.84,119.985 272,120ZM272,88C276.389,88 280,91.611 280,96C280,100.389 276.389,104 272,104C267.611,104 264,100.389 264,96C264.005,91.613 267.613,88.005 272,88Z" style="fill:white;fill-rule:nonzero;"/>
    </g>
    <g transform="matrix(0.061307,-0.0204357,0.0204357,0.061307,4.42991,16.6293)">
        <rect x="350.053" y="252" width="75.895" height="16" style="fill:white;"/>
    </g>
    <g transform="matrix(0.061307,-0.0204357,0.0204357,0.061307,3.55439,11.2343)">
        <rect x="86.053" y="252" width="75.895" height="16" style="fill:white;"/>
    </g>
    <g transform="matrix(0.0646232,0,0,0.0646232,8.45645,7.83798)">
        <path d="M478.845,257.87L468.565,270.13C475.818,276.2 480.011,285.189 480,294.647L480,480L416,480L416,464C416,462.421 415.532,460.878 414.657,459.564L414.035,458.63C398.031,434.51 401.234,402.17 421.657,381.657C424.46,378.854 424.778,374.371 422.4,371.2L386.4,323.2C384.842,321.123 384,318.596 384,316C384,309.417 389.417,304 396,304C399.774,304 403.335,305.781 405.6,308.8L441.6,356.8C443.11,358.813 445.484,360 448,360C452.389,360 456,356.389 456,352L456,24C456,19.611 452.389,16 448,16C447.14,16 446.286,16.139 445.47,16.411L327.788,55.638L186.142,16.292C184.608,15.868 182.981,15.912 181.472,16.417L181.472,16.411L61.472,56.411C58.213,57.496 56,60.565 56,64L56,352C56,356.389 59.611,360 64,360C66.516,360 68.89,358.813 70.4,356.8L106.4,308.8C108.665,305.781 112.226,304 116,304C122.583,304 128,309.417 128,316C128,318.596 127.158,321.123 125.6,323.2L89.6,371.2C87.222,374.371 87.54,378.854 90.343,381.657C110.767,402.171 113.969,434.512 97.964,458.632L97.343,459.564C96.468,460.878 96,462.421 96,464L96,480L32,480L32,294.647C31.989,285.189 36.182,276.2 43.435,270.13L33.155,257.87C22.274,266.974 15.984,280.46 16,294.647L16,488C16,492.389 19.611,496 24,496L104,496C108.389,496 112,492.389 112,488L112,466.4C130.036,438.174 127.752,401.285 106.37,375.5L111.564,368.575L162.53,351.583L157.47,336.405L128.431,346.086L138.4,332.8C139.867,330.845 141.07,328.706 141.98,326.437L162.529,319.59L157.471,304.41L143.141,309.185C141.945,304.375 139.487,299.97 136.023,296.425L162.53,287.589L157.47,272.411L85.47,296.411L88.615,305.846L72,328L72,246.559L79.238,245.111C98.057,241.325 115.032,231.226 127.338,216.493C139.439,201.935 157.095,193.085 176,192.1L176,378.234L133.47,392.415L138.53,407.594L184.213,392.362L325.858,431.708C327.416,432.142 329.069,432.091 330.597,431.562L374.264,416.562L369.064,401.43L336,412.793L336,246.559L343.238,245.111C362.057,241.325 379.032,231.226 391.338,216.493C403.439,201.935 421.095,193.085 440,192.1L440,328L418.4,299.2C416.473,296.623 414.117,294.398 411.435,292.621L426.53,287.589L421.47,272.411L349.47,296.411L354.53,311.589L369.659,306.547C367.886,311.508 367.54,316.867 368.659,322.015L349.467,328.415L354.525,343.595L376.257,336.354L385.335,348.454L349.47,360.411L354.53,375.589L395.458,361.944L405.63,375.506C384.252,401.29 381.967,438.175 400,466.4L400,488C400,492.389 403.611,496 408,496L488,496C492.389,496 496,492.389 496,488L496,294.647C496.016,280.46 489.726,266.974 478.845,257.87ZM440,108.686L429.657,98.343C428.157,96.843 426.121,96 424,96C420.975,96 418.198,97.716 416.845,100.422L396.422,141.267L371.578,128.845C368.269,127.19 364.223,128.036 361.854,130.878L336,161.9L336,69.766L440,35.1L440,108.686ZM192,132.944L229.464,114.212L244.2,134.848L219.2,153.6L228.8,166.4L253.5,147.871L265.49,164.65C266.99,166.751 269.418,168 272,168C274.121,168 276.157,167.157 277.657,165.657L294.757,148.557L320,186.422L320,220.686L318.539,219.225C301.099,201.883 275.799,194.875 251.922,200.773C235.538,204.822 218.169,201.031 204.961,190.524L192,180.155L192,132.944ZM320,70.081L320,157.581L302.656,131.565C301.174,129.342 298.672,128.003 296,128.003C293.879,128.003 291.843,128.846 290.343,130.346L273.021,147.669L238.51,99.35C236.23,96.162 231.927,95.096 228.422,96.85L192,115.056L192,34.525L320,70.081ZM176,35.1L176,112L156.8,97.6C153.289,94.967 148.233,95.689 145.6,99.2L126.4,124.8L100.8,105.6C99.415,104.562 97.731,104 96,104C93.328,104 90.826,105.339 89.344,107.562L72,133.578L72,69.766L176,35.1ZM115.045,206.25C105.081,218.179 91.337,226.356 76.1,229.421L72,230.241L72,162.422L97.966,123.474L123.2,142.4C124.585,143.438 126.269,144 128,144C130.516,144 132.89,142.813 134.4,140.8L153.6,115.2L176,132L176,176.085C152.344,177.075 130.181,188.043 115.045,206.25ZM192,377.919L192,200.645L194.966,203.018C212.076,216.627 234.575,221.539 255.8,216.3C274.231,211.747 293.76,217.156 307.222,230.543L320,243.314L320,413.475L192,377.919ZM390.346,195.032L373.657,178.343C372.157,176.843 370.121,176 368,176C365.328,176 362.826,177.339 361.344,179.562L345.344,203.562L358.656,212.438L369.243,196.557L378.994,206.308C369.034,218.206 355.311,226.361 340.1,229.421L336,230.241L336,186.9L370.09,145.993L396.422,159.159C400.347,161.122 405.192,159.507 407.155,155.582L426.191,117.509L440,131.314L440,176.085C421.834,176.844 404.4,183.497 390.346,195.032Z" style="fill:white;fill-rule:nonzero;"/>
    </g>
    <g transform="matrix(0.0646232,0,0,0.0646232,8.45645,7.83798)">
        <path d="M97.344,147.562L81.344,171.562L94.656,180.438L106.219,163.094L123.562,174.656L132.438,161.344L108.438,145.344C104.787,142.909 99.779,143.911 97.344,147.562Z" style="fill:white;fill-rule:nonzero;"/>
    </g>
    <g transform="matrix(0.0646232,0,0,0.0646232,8.45645,7.83798)">
        <path d="M64.793,32L65.569,31.845L62.431,16.155L61.654,16.311C35.241,21.654 16.059,45.052 16,72L32,72C32.042,52.643 45.82,35.837 64.793,32Z" style="fill:white;fill-rule:nonzero;"/>
    </g>
</svg>
