<?xml version="1.0" encoding="UTF-8" standalone="no"?>
<!DOCTYPE svg PUBLIC "-//W3C//DTD SVG 1.1//EN" "http://www.w3.org/Graphics/SVG/1.1/DTD/svg11.dtd">
<svg width="100%" height="100%" viewBox="0 0 50 50" version="1.1" xmlns="http://www.w3.org/2000/svg" xmlns:xlink="http://www.w3.org/1999/xlink" xml:space="preserve" xmlns:serif="http://www.serif.com/" style="fill-rule:evenodd;clip-rule:evenodd;stroke-linejoin:round;stroke-miterlimit:2;">
    <g transform="matrix(0.0744084,0,0,0.0744084,7.3643,5.95153)">
        <path d="M509.675,223.007L467.383,180.715C464.282,177.617 459.255,177.614 456.156,180.715L446.432,190.438L446.432,112.252C446.432,92.296 430.197,76.062 410.241,76.062L36.19,76.062C16.234,76.062 0,92.296 0,112.252L0,357.803C0,377.759 16.234,393.994 36.19,393.994L261.752,393.994L254.64,426.289C254.057,428.935 254.864,431.695 256.779,433.611C258.283,435.116 260.309,435.936 262.393,435.936C262.961,435.936 263.534,435.875 264.1,435.75L318.338,423.802L318.337,423.797C319.768,423.483 321.132,422.776 322.245,421.664L349.914,393.995L410.24,393.995C430.197,393.995 446.431,377.76 446.431,357.804L446.431,297.478L487.743,256.166C487.746,256.163 487.749,256.159 487.753,256.155L509.673,234.236C511.162,232.747 511.999,230.728 511.999,228.621C512,226.515 511.164,224.496 509.675,223.007ZM24.842,374.642C19.438,370.989 15.878,364.804 15.878,357.803L15.878,112.252C15.878,105.252 19.438,99.066 24.842,95.413C22.184,100.446 20.671,106.174 20.671,112.252L20.671,357.803C20.672,363.88 22.184,369.608 24.842,374.642ZM266.59,372.052L266.585,372.051L265.249,378.116L56.863,378.116C45.662,378.116 36.55,369.004 36.55,357.803L36.55,112.252C36.55,101.051 45.662,91.94 56.863,91.94L410.24,91.94C421.441,91.94 430.553,101.051 430.553,112.252L430.553,206.314L268.723,368.144C267.644,369.225 266.914,370.584 266.59,372.052ZM272.819,417.57L278.975,389.622L300.769,411.414L272.819,417.57ZM430.553,357.803C430.553,369.004 421.441,378.116 410.24,378.116L365.793,378.116L430.553,313.356L430.553,357.803ZM316.631,404.82L285.565,373.758L439.837,219.486L470.902,250.551L316.631,404.82ZM482.13,239.324L451.065,208.259L461.768,197.557L492.833,228.622L482.13,239.324Z" style="fill:white;fill-rule:nonzero;"/>
    </g>
    <g transform="matrix(0.0744084,0,0,0.0744084,7.3643,5.95153)">
        <path d="M279.773,217.716L223.852,181.531C217.022,177.114 209.832,176.362 204.128,179.465C198.423,182.57 195.152,189.015 195.152,197.15L195.152,272.906C195.152,281.04 198.424,287.485 204.129,290.589C206.447,291.85 209.011,292.474 211.697,292.474C215.619,292.474 219.799,291.141 223.854,288.519L279.771,252.333C286.389,248.054 290.185,241.746 290.186,235.026C290.188,228.309 286.393,221.999 279.773,217.716ZM271.148,239.003L215.228,275.19C213.392,276.377 212.145,276.617 211.737,276.607C211.49,276.234 211.031,275.091 211.031,272.907L211.031,197.151C211.031,194.965 211.491,193.821 211.737,193.448L211.75,193.448C212.207,193.448 213.411,193.688 215.228,194.864L271.148,231.048C273.098,232.309 274.308,233.834 274.308,235.028C274.308,236.219 273.097,237.742 271.148,239.003Z" style="fill:white;fill-rule:nonzero;"/>
    </g>
    <g transform="matrix(0.0744084,0,0,0.0744084,7.3643,5.95153)">
        <path d="M432.62,246.541L408.409,270.753C405.308,273.854 405.308,278.881 408.41,281.98C409.96,283.53 411.992,284.305 414.024,284.305C416.055,284.305 418.088,283.53 419.639,281.979L443.85,257.767C446.951,254.666 446.951,249.639 443.849,246.539C440.748,243.442 435.721,243.441 432.62,246.541Z" style="fill:white;fill-rule:nonzero;"/>
    </g>
    <g transform="matrix(0.0744084,0,0,0.0744084,7.3643,5.95153)">
        <path d="M233.526,127.819C174.411,127.819 126.318,175.913 126.318,235.027C126.318,294.142 174.411,342.234 233.526,342.234C292.641,342.234 340.733,294.141 340.733,235.027C340.733,175.913 292.64,127.819 233.526,127.819ZM233.526,326.356C183.167,326.356 142.197,285.386 142.197,235.028C142.197,184.669 183.167,143.699 233.526,143.699C283.884,143.699 324.854,184.669 324.854,235.028C324.855,285.386 283.885,326.356 233.526,326.356Z" style="fill:white;fill-rule:nonzero;"/>
    </g>
</svg>
