<?xml version="1.0" encoding="UTF-8" standalone="no"?>
<!DOCTYPE svg PUBLIC "-//W3C//DTD SVG 1.1//EN" "http://www.w3.org/Graphics/SVG/1.1/DTD/svg11.dtd">
<svg width="100%" height="100%" viewBox="0 0 50 50" version="1.1" xmlns="http://www.w3.org/2000/svg" xmlns:xlink="http://www.w3.org/1999/xlink" xml:space="preserve" xmlns:serif="http://www.serif.com/" style="fill-rule:evenodd;clip-rule:evenodd;stroke-linejoin:round;stroke-miterlimit:2;">
    <g transform="matrix(0.0628243,0,0,0.0628243,8.91698,8.26569)">
        <path d="M511.644,408.269C511.073,406.176 508.507,394.511 506.616,385.918C504.245,375.133 502.773,368.469 502.335,366.887C498.273,352.144 493.421,337.426 487.929,323.144C480.027,302.609 469.64,282.727 459.597,263.5C455.698,256.039 451.667,248.324 447.866,240.727C446.171,237.34 444.058,233.133 440.87,229.613L504.515,71.379C505.241,69.571 504.855,67.512 503.523,66.09C485.249,46.602 464.534,24.512 436.667,15.09C418.058,8.793 397.73,8.922 379.785,9.032L124.367,10.602C108.539,10.7 90.598,10.813 74.195,16.547C49.074,25.332 29.949,46.473 14.582,63.457C13.297,64.875 12.937,66.903 13.648,68.676L76.84,226.004C77.094,226.637 77.465,227.188 77.914,227.645L1.113,413.496C-0.137,415.051 -0.395,417.265 0.652,419.105C6.043,428.586 10.355,438.605 14.523,448.293C18.801,458.234 23.227,468.511 28.891,478.476C32.539,484.89 37.082,492.875 44.594,497.769C52.254,502.761 61.531,503.586 69.512,503.586C71.629,503.586 73.656,503.527 75.539,503.476L434.742,493.148C446.589,492.808 461.335,492.382 473.156,484.535C489.148,473.922 495.245,455.468 501.14,437.625C503.773,429.66 506.495,421.441 510.054,414.054C511.245,413.129 512.015,411.695 511.999,410.07C511.991,409.433 511.866,408.828 511.644,408.269ZM492.55,74.328C491.82,76.149 491.089,77.969 490.355,79.789C479.991,105.559 469.628,131.328 459.261,157.098C453.679,170.977 448.097,184.856 442.515,198.734C440.644,203.391 438.769,208.043 436.898,212.699C436.23,214.363 435.644,215.926 434.991,217.32C424.429,200 412.331,183.524 398.941,168.297C397.874,167.086 396.265,165.258 396.242,164.156C396.226,163.531 396.699,162.383 397.113,161.371C409.249,131.86 418.796,101.09 425.511,69.887C431.382,70.215 437.249,70.543 443.128,70.903C451.531,71.422 459.925,71.969 468.323,72.551C470.593,72.711 492.144,75.34 492.55,74.328ZM307.019,407.25C305.968,398.828 307.648,390.633 311.707,384.582C316.273,377.785 324.218,373.668 331.499,374.336C333.277,374.5 335.144,374.933 337.121,375.39C340.421,376.152 344.164,377.019 348.14,376.679C355.597,376.043 361.628,371.457 366.546,367.055C367.046,366.605 367.546,366.152 368.05,365.699C371.773,362.324 375.292,359.137 379.351,357.738C382.749,356.566 387.519,357.23 388.929,360.062C389.464,361.14 389.695,362.75 389.941,364.449C390.394,367.594 390.956,371.504 393.898,374.633C396.906,377.836 401.722,379.246 407.117,378.5C408.913,378.25 410.566,377.828 412.163,377.422C413.648,377.043 415.05,376.683 416.367,376.527C421.331,375.922 426.601,378.281 429.472,382.383C434.117,389.019 432.148,398.906 428.14,405.758C428.101,405.824 428.081,405.89 428.046,405.961C426.452,405.976 424.859,405.992 423.257,406.011C416.601,406.086 409.945,406.152 403.292,406.222C390.226,406.363 377.163,406.504 364.101,406.64C345.054,406.844 326.035,407.047 307.019,407.25ZM437.663,376.648C432.663,369.5 423.835,365.555 415.175,366.597C413.21,366.832 411.421,367.289 409.691,367.734C408.3,368.09 406.984,368.426 405.745,368.597C403.702,368.879 401.913,368.562 401.187,367.789C400.406,366.957 400.132,365.051 399.843,363.031C399.511,360.73 399.136,358.129 397.882,355.609C393.937,347.68 383.703,345.66 376.093,348.285C370.097,350.351 365.445,354.57 361.335,358.293C360.851,358.73 360.367,359.172 359.882,359.605C356.007,363.074 351.804,366.336 347.292,366.719C344.886,366.926 342.206,366.305 339.374,365.648C337.16,365.137 334.871,364.605 332.421,364.383C321.441,363.371 310.05,369.113 303.406,379.012C298.207,386.758 295.921,396.961 296.972,407.359C292.207,407.41 287.441,407.461 282.675,407.511C281.695,385.152 294.152,361.535 314.457,347.293C332.953,334.312 357.578,328.359 383.8,330.527C399.902,331.859 422.581,336.844 439.175,353.015C444.921,358.613 449.327,365.328 452.202,372.437C456.656,383.461 457.429,395.433 453.812,405.687C448.925,405.738 444.081,405.789 439.241,405.84C443.585,395.441 443.105,384.422 437.663,376.648ZM272.675,407.617L248.39,407.875C249.246,391.492 243.875,374.41 233.589,360.273C247.421,343.082 248.918,316.609 237.222,295.879C237.105,295.676 236.972,295.48 236.855,295.277C236.925,295.215 237.004,295.168 237.07,295.102C249.968,281.957 253.843,260.699 246.711,242.207C244.941,237.613 242.539,233.262 239.629,229.207L284.82,229.125C280.058,235.008 276.253,241.414 273.601,248.148C266.613,265.875 267.793,285.508 276.757,300.672C277,301.082 277.293,301.441 277.621,301.754C275.082,305.976 273.058,310.402 271.664,314.969C265.992,333.516 270.863,353.68 283.765,365.851C276.105,378.695 272.109,393.191 272.675,407.617ZM178.664,408.441C179.058,395.234 185.383,382.242 195.66,373.918C196.41,373.308 197.097,372.918 197.621,372.687C197.566,373.097 197.461,373.652 197.25,374.387C196.175,378.097 194.758,381.742 193.254,385.594C190.461,392.769 187.586,400.164 187.004,408.207C185.222,408.246 183.441,408.293 181.664,408.351C180.664,408.386 179.664,408.41 178.664,408.441ZM202.574,389.222C204.09,385.332 205.656,381.308 206.855,377.164C208.843,370.289 206.715,366.57 204.582,364.664C200.718,361.207 194.746,361.789 189.363,366.148C176.715,376.39 168.972,392.445 168.644,408.703C164.015,408.808 159.379,408.894 154.742,408.957C155.597,402.172 157.855,395.554 161.347,389.683C162.062,388.476 162.836,387.277 163.656,386C167.051,380.742 170.89,374.781 170.855,367.523C170.84,364.551 170.023,362.129 168.426,360.324C165.476,357.004 160.379,356.371 155.437,358.715C148.426,362.047 144.109,368.586 140.812,374.551C134.777,385.465 130.152,397.125 127.043,409.207C121.617,409.246 116.207,409.285 110.816,409.34C110.965,405.75 112.762,402.875 115.847,398.301C116.41,397.469 116.984,396.613 117.566,395.726C119.117,393.347 120.804,391.066 122.59,388.652C125.469,384.754 128.449,380.722 130.851,376.219C134.465,369.437 133.851,362.844 129.281,359.422C127.297,357.933 123.781,356.508 118.308,358.172C111.16,360.347 105.765,365.457 102.328,369.113C91.824,380.285 84.359,394.64 81.199,409.656C73.168,409.742 65.141,409.828 57.109,409.914C57.262,409.25 57.285,408.547 57.144,407.836C55.07,397.426 56.539,386.465 61.281,376.972C67.644,364.226 80.437,355.637 92.996,347.93C116.101,333.754 144.609,328.586 171.218,333.75C190.715,337.535 208.062,346.703 220.074,359.566C232.699,373.086 239.437,391.054 238.351,407.98C236.148,408.004 233.941,408.027 231.738,408.051C220.136,408.176 208.586,408.011 197.047,408.082C197.66,401.836 200.054,395.683 202.574,389.222ZM144.679,409.07C142.261,409.094 139.84,409.113 137.426,409.133C140.301,398.785 144.367,388.789 149.566,379.39C152.09,374.82 155.273,369.863 159.726,367.754C160.152,367.551 160.543,367.433 160.851,367.371C160.855,367.433 160.855,367.504 160.855,367.574C160.879,371.863 158.144,376.097 155.254,380.586C154.422,381.879 153.558,383.215 152.75,384.578C148.324,392.019 145.566,400.457 144.679,409.07ZM109.191,390.265C108.64,391.105 108.094,391.918 107.558,392.711C104.285,397.558 100.914,402.554 100.797,409.445C97.687,409.48 94.582,409.511 91.473,409.547C94.496,397.094 100.859,385.273 109.613,375.965C113.828,371.48 117.515,368.867 121.215,367.742C122.215,367.437 122.871,367.41 123.183,367.441C123.254,368.078 123.015,369.656 122.023,371.515C119.969,375.371 117.336,378.933 114.547,382.707C112.758,385.133 110.902,387.64 109.191,390.265ZM231.039,286.863C219.882,273.109 202.89,263.07 183.726,259.285C164.101,255.414 142.519,257.531 119.586,265.586C111.719,268.348 104.586,271.555 98.18,275.18C98.047,275.254 96.777,265.812 96.781,264.906C96.785,262.18 97.027,259.324 97.598,256.609C98.64,256.547 99.676,256.172 100.531,255.438C119.433,239.281 144.531,230.316 169.398,230.836C194.261,231.356 218.964,241.367 237.175,258.301C238.058,259.121 239.16,259.543 240.277,259.609C241.066,268.957 238.461,278.457 231.039,286.863ZM123.715,324.121C120.23,310.82 113.824,298.238 105.094,287.629C104.191,286.531 103.23,285.43 102.168,284.387C108.73,280.551 115.797,277.512 122.898,275.02C127.113,273.543 131.426,272.18 135.797,271.012C127.328,284.863 124.652,302.223 129.07,317.922C129.476,319.367 129.984,320.961 130.746,322.547C128.402,322.992 126.054,323.519 123.715,324.121ZM141.258,321.137C141.105,320.516 140.84,319.918 140.441,319.375C139.617,318.25 139.097,316.641 138.695,315.215C134.125,298.969 138.699,280.578 150.347,268.367C150.461,268.25 150.543,268.113 150.64,267.988C156.051,267.266 161.496,266.988 166.929,267.32C162.398,274.406 159.09,282.937 157.109,292.805C155.219,302.238 154.679,311.812 154.261,321.137C151.586,320.93 148.902,320.82 146.215,320.871C144.574,320.902 142.918,321.004 141.258,321.137ZM166.914,294.773C168.988,284.422 172.633,275.844 177.738,269.281C177.914,269.051 178.054,268.809 178.187,268.562C182.375,269.203 186.539,270.074 190.48,271.344C194.121,272.516 197.679,273.961 201.101,275.672C202.82,276.531 204.492,277.48 206.121,278.496C190.429,289.394 178.675,305.633 173.246,323.961C173.203,323.953 173.164,323.941 173.121,323.933C170.168,323.363 167.199,322.816 164.215,322.344C164.625,313.16 165.117,303.73 166.914,294.773ZM214.75,284.781C215.039,285.027 215.332,285.266 215.621,285.516C220.242,289.488 225.015,293.617 228.363,298.773C214.668,306.238 203.222,317.641 195.715,331.305C191.515,329.473 187.3,327.816 182.933,326.441C188.101,309.309 199.554,294.277 214.75,284.781ZM232.297,308.012C233.129,310.934 233.742,313.926 234.242,316.613C235.406,322.855 235.425,329.332 234.191,335.566C233.886,337.101 227.601,352.984 227.031,352.383C221.328,346.348 214.246,340.066 206.711,336.422C206.078,336.117 205.453,335.816 204.824,335.515C211.261,324.062 220.847,314.453 232.297,308.012ZM169.609,220.836C146.836,220.363 123.89,227.141 104.863,239.703C106.574,237.039 108.488,234.566 110.539,232.441C123.883,218.621 142.89,213.098 156.484,210.899C162.89,209.863 169.148,209.367 175.172,209.41C185.73,209.484 195.578,211.203 204.246,214.535C217.5,219.629 229.711,230.961 235.988,244.23C217.066,229.758 193.406,221.336 169.609,220.836ZM93.547,290.156C94.816,291.031 96.015,292.332 97.371,293.98C105.265,303.574 111.035,314.973 114.133,327.012C109.586,328.578 105.125,330.383 100.836,332.387C96.5,320.574 89.973,309.898 83.523,299.582C84.09,298.961 84.668,298.328 85.242,297.707C87.793,294.941 90.582,292.437 93.547,290.156ZM76.859,307.797C82.637,317.121 88.265,326.758 91.863,337.008C90.473,337.793 89.098,338.59 87.765,339.406C82.64,342.551 77.473,345.848 72.613,349.519C67.109,337.215 68.683,321.058 76.859,307.797ZM447.765,313.258C447.988,313.422 448.226,313.547 448.468,313.668C452.136,324.453 452.339,336.332 447.062,346.765C446.761,346.461 446.464,346.152 446.156,345.851C427.433,327.605 402.359,322.027 384.624,320.562C379.085,320.105 373.605,319.98 368.222,320.187C345.863,321.047 325.16,327.562 308.71,339.105C301.277,344.316 294.82,350.539 289.496,357.437C284.199,351.875 281.109,344.609 280.019,336.992C289.449,321.902 301.82,310.269 315.816,303.344C331.16,295.75 348.472,294.082 363.32,298.762C365.078,299.316 366.82,299.961 368.663,300.641C372.101,301.914 375.656,303.226 379.503,303.996C387.312,305.559 394.988,304.625 402.413,303.726C406.808,303.191 410.956,302.687 415.074,302.684L415.136,302.684C425.597,302.684 439.308,307.125 447.765,313.258ZM415.136,292.684L415.054,292.684C410.343,292.691 405.699,293.254 401.21,293.801C394.261,294.641 387.703,295.437 381.464,294.191C378.39,293.574 375.347,292.453 372.128,291.262C370.257,290.57 368.32,289.852 366.328,289.227C349.042,283.773 329.015,285.652 311.378,294.383C300.175,299.93 289.941,308.121 281.207,318.433C281.574,317.098 281.98,315.781 282.464,314.504C287.64,300.887 299.246,289.973 311.812,283.328C324.378,276.68 339.882,272.781 359.21,271.41C378.64,270.035 394.785,271.668 408.562,276.402C420.519,280.512 432.136,287.668 440.015,297.871C431.878,294.644 422.882,292.684 415.136,292.684ZM313.562,245.922C316.71,243.617 320.589,241.762 326.136,239.902C339.05,235.582 353.054,233.797 366.64,234.731C370.097,234.969 374.128,235.398 377.804,236.773C387.503,240.402 394.011,251.664 392.312,261.879C392.288,262.027 392.296,262.176 392.285,262.324C381.117,260.727 369.663,260.648 358.503,261.441C346.519,262.289 334.523,264.137 323.066,267.828C315.925,270.133 309.796,273.309 303.812,277.078C300.257,266.184 304.312,252.699 313.562,245.922ZM412.413,267.164C412.21,267.094 412.015,267.016 411.812,266.945C408.593,265.84 405.32,264.914 402.007,264.141C402.07,263.937 402.14,263.734 402.175,263.52C404.663,248.578 395.495,232.715 381.308,227.41C376.402,225.574 371.257,225.027 367.324,224.754C352.449,223.734 337.109,225.691 322.964,230.422C318.542,231.902 312.804,234.086 307.656,237.859C294.089,247.793 288.777,267.375 295.289,282.84C295.132,282.949 294.98,283.055 294.824,283.164C293.429,284.164 283.082,291.211 283.949,292.957C277.976,280.926 277.527,265.461 282.902,251.82C288.253,238.242 299.078,226.117 313.386,217.676C335.226,204.781 361.437,202.996 381.785,213.012C402.558,223.238 415.261,246.059 412.413,267.164ZM412.46,224.457C411.812,224.582 411.183,224.703 410.577,224.816C404.374,216.191 396.062,208.895 386.199,204.039C362.863,192.551 333.015,194.477 308.3,209.063C302.98,212.199 298.085,215.813 293.683,219.793C292.953,219.375 292.117,219.117 291.207,219.117L233.527,219.219C232.726,219.219 231.984,219.426 231.312,219.762C224.765,213.645 216.804,208.652 207.832,205.203C192.347,199.254 174.539,197.848 154.886,201.027C134.609,204.305 117.687,211.941 105.703,223.176C101.562,222.711 98.543,222.43 95.625,222.16C93.851,221.996 92.297,221.965 90.887,221.809C102.648,204.219 113.855,186.024 124.273,167.613C124.558,167.637 124.847,167.649 125.144,167.621C212.043,159.488 300.128,159.695 386.995,168.215C388.05,171.055 389.999,173.274 391.429,174.902C404.648,189.93 416.57,206.219 426.949,223.344C426.39,223.391 425.808,223.418 425.171,223.406C420.843,223.309 416.87,223.609 412.46,224.457ZM387.863,157.574C387.777,157.785 387.687,158.004 387.597,158.227C300.976,149.758 213.156,149.5 126.488,157.465C123.625,125.305 116.394,95.266 104.957,68.047C153.379,65.903 201.914,64.84 250.433,64.895C262.656,64.907 274.878,64.989 287.101,65.145C311.406,65.45 335.71,66.028 360.003,66.887C372.14,67.313 384.273,67.813 396.406,68.379C402.745,68.672 409.074,69 415.398,69.336C408.824,99.426 399.574,129.094 387.863,157.574ZM77.496,25.989C92.328,20.801 108.648,20.7 124.429,20.606L379.847,19.032C397.835,18.918 416.441,18.805 433.464,24.563C454.913,31.817 472.331,47.914 487.726,63.938C335.589,52.465 181.41,51.903 29.191,62.274C42.809,47.567 58.246,32.719 77.496,25.989ZM71.836,186.711C62.086,162.442 52.34,138.172 42.59,113.903C37.051,100.106 31.508,86.313 25.969,72.52C26.66,74.242 63.121,70.16 66.984,69.942C76.078,69.426 85.183,68.969 94.285,68.532C106.445,96.321 114,127.293 116.738,160.645C106.234,179.324 94.883,197.805 82.973,215.656C81.371,212.336 80.633,208.609 79.265,205.207C76.785,199.043 74.312,192.875 71.836,186.711ZM87.195,231.383C90.082,231.688 92.422,231.906 94.699,232.117C95.652,232.203 96.621,232.297 97.629,232.391C87.238,246.996 83.937,265.441 89.465,280.691C81.664,286.211 75.25,292.508 70.308,299.559C58.125,316.945 56.035,339.648 64.734,356.168C59.793,360.863 55.488,366.191 52.332,372.504C46.605,383.972 44.832,397.215 47.336,409.789C47.351,409.867 47.387,409.937 47.406,410.015L13.223,410.379L87.195,231.383ZM491.644,434.484C486.034,451.465 480.738,467.5 467.624,476.203C458.882,482.007 447.902,482.765 434.452,483.152L75.25,493.476C65.336,493.765 56.594,493.652 50.051,489.39C44.574,485.82 40.859,479.289 37.582,473.531C32.191,464.05 27.879,454.031 23.711,444.34C20.32,436.461 16.824,428.367 12.703,420.386L498.573,415.211C495.925,421.539 493.757,428.093 491.644,434.484ZM464.32,405.574C468.847,389.023 464.874,370.144 453.949,354.918C463.675,339.488 463.835,318.371 454.288,300.902C447.441,288.367 436.14,278.035 421.902,271.109C424.214,258.641 421.925,245.563 416.101,233.945C421.085,233.012 427.128,232.086 430.222,233.719C433.933,235.672 436.359,240.074 438.925,245.203C442.765,252.879 446.816,260.633 450.734,268.129C460.648,287.109 470.898,306.734 478.593,326.734C483.972,340.715 488.718,355.117 492.698,369.547C493.093,370.988 495.089,380.062 496.851,388.066C498.085,393.664 499.359,399.453 500.343,403.844C500.448,404.308 500.55,404.758 500.648,405.187L464.32,405.574ZM510.777,406.847C511.089,407.203 511.343,407.59 511.523,407.988C511.327,407.574 511.073,407.191 510.777,406.847Z" style="fill:white;fill-rule:nonzero;"/>
    </g>
</svg>
