<?xml version="1.0" encoding="UTF-8" standalone="no"?>
<!DOCTYPE svg PUBLIC "-//W3C//DTD SVG 1.1//EN" "http://www.w3.org/Graphics/SVG/1.1/DTD/svg11.dtd">
<svg width="100%" height="100%" viewBox="0 0 50 50" version="1.1" xmlns="http://www.w3.org/2000/svg" xmlns:xlink="http://www.w3.org/1999/xlink" xml:space="preserve" xmlns:serif="http://www.serif.com/" style="fill-rule:evenodd;clip-rule:evenodd;stroke-linejoin:round;stroke-miterlimit:2;">
    <g transform="matrix(0.0606223,0,0,0.0606223,9.4807,8.87195)">
        <path d="M235.439,43.973L277.144,43.973C281.61,43.973 285.228,40.353 285.228,35.889C285.228,31.424 281.61,27.805 277.144,27.805L235.439,27.805C230.973,27.805 227.355,31.425 227.355,35.889C227.355,40.353 230.973,43.973 235.439,43.973Z" style="fill:white;fill-rule:nonzero;"/>
    </g>
    <g transform="matrix(0.0606223,0,0,0.0606223,9.4807,8.87195)">
        <path d="M496.713,192.694L468.896,78.087C468.62,76.953 461.854,50.179 435.254,38.874C416,30.692 355.108,7.575 339.862,1.802C338.473,0.677 336.705,0 334.778,0L333.62,0L178.382,0C178.123,0 177.866,0.014 177.608,0.039C177.497,0.05 177.388,0.069 177.278,0.084C177.137,0.103 176.996,0.122 176.855,0.149C176.724,0.174 176.595,0.207 176.466,0.238C176.351,0.266 176.235,0.294 176.12,0.326C175.986,0.365 175.856,0.41 175.724,0.455C175.657,0.479 175.589,0.496 175.522,0.521C172.382,1.708 98.35,29.692 76.746,38.874C51.172,49.744 43.936,74.9 43.171,77.83C43.171,77.831 43.171,77.832 43.17,77.833C43.156,77.888 43.145,77.931 43.134,77.97C43.12,78.023 43.11,78.065 43.105,78.085L23.337,159.53L23.337,159.531L15.287,192.695C14.336,196.61 16.414,200.627 20.159,202.115L99.629,233.685L99.629,503.916C99.629,508.382 103.248,512 107.713,512L404.286,512C408.752,512 412.37,508.382 412.37,503.916L412.37,471.051L412.37,317.128C412.37,312.663 408.752,309.044 404.286,309.044C399.82,309.044 396.202,312.664 396.202,317.128L396.202,462.966L197.52,462.966C193.054,462.966 189.436,466.585 189.436,471.05C189.436,475.515 193.054,479.134 197.52,479.134L396.203,479.134L396.203,495.831L115.799,495.831L115.799,479.134L170.573,479.134C175.039,479.134 178.657,475.514 178.657,471.05C178.657,466.584 175.039,462.966 170.573,462.966L115.799,462.966L115.799,228.196L115.799,193.53L115.799,130.886C115.799,129.411 115.396,127.965 114.633,126.703L73.863,59.278C76.495,57.163 79.546,55.254 83.073,53.755C99.624,46.721 149.254,27.787 170.926,19.557C176.125,67.334 213.232,105.758 256.581,105.758C299.801,105.758 336.821,67.56 342.192,19.979C364.407,28.419 412.657,46.838 428.931,53.754C432.458,55.253 435.508,57.162 438.141,59.277L397.372,126.701C396.609,127.963 396.206,129.41 396.206,130.884L396.206,290.18C396.206,294.646 399.825,298.264 404.29,298.264C408.756,298.264 412.374,294.646 412.374,290.18L412.374,233.682L491.844,202.112C495.585,200.626 497.663,196.609 496.713,192.694ZM99.631,216.286L32.658,189.68L36.814,172.56L99.63,198.905L99.63,216.286L99.631,216.286ZM99.631,133.139L99.631,181.372L40.677,156.647L58.811,81.936C58.834,81.845 59.935,77.676 62.905,72.402L99.631,133.139ZM256.58,89.589C224.627,89.589 190.543,60.424 186.805,16.168L326.357,16.168C322.617,60.425 288.533,89.589 256.58,89.589ZM412.372,133.139L449.099,72.4C451.044,75.853 452.189,78.831 452.749,80.491C452.75,80.496 452.752,80.501 452.754,80.506C452.807,80.663 452.853,80.806 452.896,80.938C452.904,80.963 452.912,80.989 452.92,81.013C452.953,81.118 452.983,81.212 453.009,81.299C453.02,81.332 453.031,81.369 453.04,81.4C453.062,81.471 453.08,81.534 453.096,81.59C453.104,81.616 453.112,81.647 453.119,81.67C453.132,81.715 453.142,81.75 453.15,81.782C453.155,81.801 453.163,81.827 453.167,81.842C453.175,81.87 453.181,81.896 453.182,81.9L471.325,156.648L412.371,181.373L412.371,133.139L412.372,133.139ZM412.372,216.286L412.372,198.905L475.188,172.56L479.343,189.681L412.372,216.286Z" style="fill:white;fill-rule:nonzero;"/>
    </g>
</svg>
