<?xml version="1.0" encoding="UTF-8" standalone="no"?>
<!DOCTYPE svg PUBLIC "-//W3C//DTD SVG 1.1//EN" "http://www.w3.org/Graphics/SVG/1.1/DTD/svg11.dtd">
<svg width="100%" height="100%" viewBox="0 0 50 50" version="1.1" xmlns="http://www.w3.org/2000/svg" xmlns:xlink="http://www.w3.org/1999/xlink" xml:space="preserve" xmlns:serif="http://www.serif.com/" style="fill-rule:evenodd;clip-rule:evenodd;stroke-linejoin:round;stroke-miterlimit:2;">
    <g transform="matrix(0.66113,0,0,0.66113,8.47175,-1.66102)">
        <g transform="matrix(0.0976658,0,0,0.0976658,0,14.4428)">
            <path d="M507.934,247.976C505.723,247.976 503.935,249.765 503.935,251.975L503.935,475.946C503.935,478.157 505.723,479.946 507.934,479.946C510.145,479.946 511.934,478.157 511.934,475.946L511.934,251.975C511.934,249.765 510.145,247.976 507.934,247.976Z" style="fill:white;fill-rule:nonzero;"/>
        </g>
        <g transform="matrix(0.0976658,0,0,0.0976658,0,14.4428)">
            <path d="M491.951,487.945L19.997,487.945C17.787,487.945 15.998,489.734 15.998,491.944C15.998,494.155 17.787,495.944 19.997,495.944L491.952,495.944C494.163,495.944 495.952,494.155 495.951,491.944C495.951,489.734 494.162,487.945 491.951,487.945Z" style="fill:white;fill-rule:nonzero;"/>
        </g>
        <g transform="matrix(0.0976658,0,0,0.0976658,0,14.4428)">
            <path d="M3.999,215.979C1.789,215.979 0,217.769 0,219.979L0,475.946C0,478.157 1.789,479.946 3.999,479.946C6.21,479.946 7.999,478.157 7.999,475.945L7.999,219.979C7.999,217.768 6.21,215.979 3.999,215.979Z" style="fill:white;fill-rule:nonzero;"/>
        </g>
        <g transform="matrix(0.0976658,0,0,0.0976658,0,14.4428)">
            <path d="M475.937,48.001L35.987,48.001C33.776,48.001 31.987,49.79 31.987,52.001L31.987,203.981C31.987,206.191 33.776,207.98 35.987,207.98C38.198,207.98 39.987,206.191 39.987,203.981L39.987,56L471.939,56L471.939,203.982C471.939,206.192 473.728,207.981 475.938,207.981C478.149,207.981 479.938,206.192 479.937,203.981L479.937,52.001C479.937,49.79 478.148,48.001 475.937,48.001Z" style="fill:white;fill-rule:nonzero;"/>
        </g>
        <g transform="matrix(0.0976658,0,0,0.0976658,0,14.4428)">
            <path d="M143.974,79.998C113.103,79.998 87.981,105.116 87.981,135.991C87.981,166.865 113.103,191.983 143.974,191.983C174.845,191.983 199.966,166.865 199.966,135.991C199.966,105.116 174.845,79.998 143.974,79.998ZM143.974,183.983C117.508,183.983 95.98,162.455 95.98,135.99C95.98,109.524 117.508,87.996 143.974,87.996C170.439,87.996 191.967,109.525 191.967,135.99C191.967,162.455 170.439,183.983 143.974,183.983Z" style="fill:white;fill-rule:nonzero;"/>
        </g>
        <g transform="matrix(0.0976658,0,0,0.0976658,0,14.4428)">
            <path d="M419.945,111.994L243.96,111.994C241.75,111.994 239.961,113.783 239.961,115.993C239.961,118.204 241.75,119.993 243.96,119.993L419.946,119.993C422.157,119.993 423.946,118.204 423.945,115.993C423.945,113.783 422.156,111.994 419.945,111.994Z" style="fill:white;fill-rule:nonzero;"/>
        </g>
        <g transform="matrix(0.0976658,0,0,0.0976658,0,14.4428)">
            <path d="M419.945,135.991L243.96,135.991C241.75,135.991 239.961,137.78 239.961,139.99C239.961,142.201 241.75,143.99 243.96,143.99L419.946,143.99C422.157,143.99 423.946,142.201 423.945,139.99C423.945,137.78 422.156,135.991 419.945,135.991Z" style="fill:white;fill-rule:nonzero;"/>
        </g>
        <g transform="matrix(0.0976658,0,0,0.0976658,0,14.4428)">
            <path d="M331.957,159.986L243.96,159.986C241.75,159.986 239.961,161.775 239.961,163.986C239.961,166.197 241.75,167.986 243.96,167.986L331.957,167.986C334.167,167.986 335.956,166.197 335.956,163.986C335.956,161.775 334.167,159.986 331.957,159.986Z" style="fill:white;fill-rule:nonzero;"/>
        </g>
        <g transform="matrix(0.0976658,0,0,0.0976658,0,14.4428)">
            <path d="M158.801,129.162C157.238,127.6 154.707,127.6 153.145,129.162L121.149,161.158C119.587,162.721 119.587,165.252 121.149,166.814C121.93,167.595 122.953,167.986 123.976,167.986C124.999,167.986 126.023,167.596 126.805,166.814L158.801,134.818C160.363,133.255 160.363,130.724 158.801,129.162Z" style="fill:white;fill-rule:nonzero;"/>
        </g>
        <g transform="matrix(0.0976658,0,0,0.0976658,0,14.4428)">
            <path d="M182.797,153.16L158.8,129.163C157.237,127.601 154.706,127.601 153.144,129.163C151.582,130.726 151.582,133.257 153.144,134.819L177.141,158.816C177.922,159.596 178.946,159.987 179.969,159.987C180.993,159.987 182.016,159.597 182.797,158.816C184.359,157.253 184.359,154.722 182.797,153.16Z" style="fill:white;fill-rule:nonzero;"/>
        </g>
        <g transform="matrix(0.0976658,0,0,0.0976658,0,14.4428)">
            <path d="M122.804,137.162C121.242,135.6 118.71,135.6 117.148,137.162L105.15,149.161C103.588,150.723 103.588,153.254 105.15,154.816C105.932,155.597 106.955,155.988 107.978,155.988C109.001,155.988 110.025,155.597 110.805,154.816L122.804,142.818C124.366,141.255 124.366,138.724 122.804,137.162Z" style="fill:white;fill-rule:nonzero;"/>
        </g>
        <g transform="matrix(0.0976658,0,0,0.0976658,0,14.4428)">
            <path d="M130.804,145.161L122.805,137.162C121.243,135.6 118.711,135.6 117.149,137.162C115.587,138.724 115.587,141.256 117.149,142.818L125.148,150.817C125.929,151.597 126.953,151.988 127.976,151.988C128.999,151.988 130.022,151.598 130.804,150.817C132.366,149.254 132.366,146.723 130.804,145.161Z" style="fill:white;fill-rule:nonzero;"/>
        </g>
        <g transform="matrix(0.0976658,0,0,0.0976658,0,14.4428)">
            <path d="M131.975,103.995C125.359,103.995 119.977,109.377 119.977,115.993C119.977,122.61 125.359,127.992 131.975,127.992C138.591,127.992 143.974,122.609 143.974,115.993C143.974,109.377 138.591,103.995 131.975,103.995ZM131.975,119.993C129.772,119.993 127.976,118.2 127.976,115.993C127.976,113.787 129.772,111.994 131.975,111.994C134.178,111.994 135.975,113.787 135.975,115.993C135.975,118.2 134.178,119.993 131.975,119.993Z" style="fill:white;fill-rule:nonzero;"/>
        </g>
        <g transform="matrix(0.0976658,0,0,0.0976658,0,14.4428)">
            <path d="M19.997,231.978C13.381,231.978 7.999,226.596 7.999,219.979C7.999,217.768 6.21,215.979 3.999,215.979C1.789,215.979 0,217.769 0,219.979C0,231.005 8.967,239.977 19.997,239.977C22.208,239.977 23.997,238.189 23.997,235.978C23.997,233.767 22.208,231.978 19.997,231.978Z" style="fill:white;fill-rule:nonzero;"/>
        </g>
        <g transform="matrix(0.0976658,0,0,0.0976658,0,14.4428)">
            <path d="M19.997,487.945C13.381,487.945 7.999,482.563 7.999,475.946C7.999,473.736 6.21,471.947 3.999,471.947C1.789,471.947 0,473.736 0,475.946C0,486.976 8.967,495.944 19.997,495.944C22.208,495.944 23.997,494.155 23.997,491.944C23.997,489.734 22.208,487.945 19.997,487.945Z" style="fill:white;fill-rule:nonzero;"/>
        </g>
        <g transform="matrix(0.0976658,0,0,0.0976658,0,14.4428)">
            <path d="M507.95,471.947C505.739,471.947 503.951,473.736 503.951,475.946C503.951,482.563 498.569,487.945 491.952,487.945C489.742,487.945 487.953,489.734 487.953,491.944C487.953,494.155 489.742,495.944 491.952,495.944C502.982,495.944 511.95,486.976 511.95,475.946C511.95,473.736 510.161,471.947 507.95,471.947Z" style="fill:white;fill-rule:nonzero;"/>
        </g>
        <g transform="matrix(0.0976658,0,0,0.0976658,0,14.4428)">
            <path d="M491.952,231.977C489.742,231.977 487.953,233.766 487.953,235.977C487.953,238.188 489.742,239.977 491.952,239.977C498.569,239.977 503.951,245.359 503.951,251.975C503.951,254.186 505.739,255.975 507.95,255.975C510.161,255.975 511.95,254.186 511.95,251.974C511.95,240.949 502.982,231.977 491.952,231.977Z" style="fill:white;fill-rule:nonzero;"/>
        </g>
        <g transform="matrix(0.0976658,0,0,0.0976658,0,14.4428)">
            <path d="M491.952,199.981C489.742,199.981 487.953,201.77 487.953,203.981C487.953,206.191 489.742,207.98 491.952,207.98C498.569,207.98 503.951,213.363 503.951,219.979C503.951,222.19 505.739,223.979 507.95,223.979C510.161,223.979 511.95,222.19 511.95,219.979C511.95,208.953 502.982,199.981 491.952,199.981Z" style="fill:white;fill-rule:nonzero;"/>
        </g>
        <g transform="matrix(0.0976658,0,0,0.0976658,0,14.4428)">
            <path d="M19.997,199.981C8.967,199.981 0,208.953 0,219.979C0,222.19 1.789,223.979 3.999,223.979C6.21,223.979 7.999,222.19 7.999,219.979C7.999,213.362 13.381,207.98 19.997,207.98C22.208,207.98 23.997,206.191 23.997,203.981C23.997,201.77 22.208,199.981 19.997,199.981Z" style="fill:white;fill-rule:nonzero;"/>
        </g>
        <g transform="matrix(0.0976658,0,0,0.0976658,0,14.4428)">
            <path d="M491.951,231.977L19.997,231.977C17.787,231.977 15.998,233.766 15.998,235.977C15.998,238.188 17.787,239.977 19.997,239.977L491.952,239.977C494.163,239.977 495.951,238.188 495.951,235.977C495.951,233.766 494.162,231.977 491.951,231.977Z" style="fill:white;fill-rule:nonzero;"/>
        </g>
        <g transform="matrix(0.0976658,0,0,0.0976658,0,14.4428)">
            <path d="M507.95,215.979C505.739,215.979 503.951,217.769 503.951,219.979L503.951,227.978C503.951,230.189 505.739,231.978 507.95,231.978C510.161,231.978 511.95,230.189 511.95,227.978L511.95,219.979C511.95,217.768 510.161,215.979 507.95,215.979Z" style="fill:white;fill-rule:nonzero;"/>
        </g>
        <g transform="matrix(0.0976658,0,0,0.0976658,0,14.4428)">
            <path d="M483.938,215.979L27.989,215.979C25.778,215.979 23.989,217.768 23.989,219.979C23.989,222.19 25.778,223.979 27.989,223.979L483.938,223.979C486.148,223.979 487.937,222.19 487.937,219.979C487.937,217.768 486.148,215.979 483.938,215.979Z" style="fill:white;fill-rule:nonzero;"/>
        </g>
        <g transform="matrix(0.0976658,0,0,0.0976658,0,14.4428)">
            <path d="M467.94,32.003L43.995,32.003C41.784,32.003 39.995,33.792 39.995,36.003C39.995,38.214 41.784,40.003 43.995,40.003L467.94,40.003C470.15,40.003 471.939,38.214 471.939,36.003C471.939,33.792 470.15,32.003 467.94,32.003Z" style="fill:white;fill-rule:nonzero;"/>
        </g>
        <g transform="matrix(0.0976658,0,0,0.0976658,0,14.4428)">
            <path d="M459.941,16.006L51.994,16.006C49.783,16.006 47.994,17.795 47.994,20.005C47.994,22.216 49.783,24.005 51.994,24.005L459.941,24.005C462.151,24.005 463.94,22.216 463.94,20.005C463.94,17.795 462.151,16.006 459.941,16.006Z" style="fill:white;fill-rule:nonzero;"/>
        </g>
        <g transform="matrix(0.0976658,0,0,0.0976658,0,14.4428)">
            <path d="M171.97,255.975L155.972,255.975C153.761,255.975 151.972,257.764 151.972,259.974C151.972,262.185 153.761,263.974 155.972,263.974L171.97,263.974C174.181,263.974 175.97,262.185 175.97,259.974C175.97,257.764 174.18,255.975 171.97,255.975Z" style="fill:white;fill-rule:nonzero;"/>
        </g>
        <g transform="matrix(0.0976658,0,0,0.0976658,0,14.4428)">
            <path d="M267.957,255.975L251.959,255.975C249.749,255.975 247.96,257.764 247.96,259.974C247.96,262.185 249.749,263.974 251.959,263.974L267.957,263.974C270.168,263.974 271.957,262.185 271.957,259.974C271.957,257.764 270.168,255.975 267.957,255.975Z" style="fill:white;fill-rule:nonzero;"/>
        </g>
        <g transform="matrix(0.0976658,0,0,0.0976658,0,14.4428)">
            <path d="M235.962,255.975L219.964,255.975C217.753,255.975 215.964,257.764 215.964,259.974C215.964,262.185 217.754,263.974 219.964,263.974L235.962,263.974C238.172,263.974 239.961,262.185 239.962,259.974C239.962,257.764 238.172,255.975 235.962,255.975Z" style="fill:white;fill-rule:nonzero;"/>
        </g>
        <g transform="matrix(0.0976658,0,0,0.0976658,0,14.4428)">
            <path d="M107.978,255.975L91.98,255.975C89.769,255.975 87.98,257.764 87.98,259.974C87.98,262.185 89.77,263.974 91.98,263.974L107.978,263.974C110.189,263.974 111.978,262.185 111.978,259.974C111.978,257.764 110.188,255.975 107.978,255.975Z" style="fill:white;fill-rule:nonzero;"/>
        </g>
        <g transform="matrix(0.0976658,0,0,0.0976658,0,14.4428)">
            <path d="M43.987,255.975L27.989,255.975C25.778,255.975 23.989,257.764 23.989,259.974C23.989,262.185 25.778,263.974 27.989,263.974L43.987,263.974C46.197,263.974 47.986,262.185 47.987,259.974C47.987,257.764 46.197,255.975 43.987,255.975Z" style="fill:white;fill-rule:nonzero;"/>
        </g>
        <g transform="matrix(0.0976658,0,0,0.0976658,0,14.4428)">
            <path d="M139.974,255.975L123.976,255.975C121.766,255.975 119.977,257.764 119.977,259.974C119.977,262.185 121.766,263.974 123.976,263.974L139.974,263.974C142.185,263.974 143.974,262.185 143.974,259.974C143.974,257.764 142.185,255.975 139.974,255.975Z" style="fill:white;fill-rule:nonzero;"/>
        </g>
        <g transform="matrix(0.0976658,0,0,0.0976658,0,14.4428)">
            <path d="M75.983,255.975L59.985,255.975C57.774,255.975 55.985,257.764 55.985,259.974C55.985,262.185 57.774,263.974 59.985,263.974L75.983,263.974C78.193,263.974 79.982,262.185 79.982,259.974C79.982,257.764 78.193,255.975 75.983,255.975Z" style="fill:white;fill-rule:nonzero;"/>
        </g>
        <g transform="matrix(0.0976658,0,0,0.0976658,0,14.4428)">
            <path d="M203.966,255.975L187.968,255.975C185.757,255.975 183.968,257.764 183.968,259.974C183.968,262.185 185.757,263.974 187.968,263.974L203.966,263.974C206.176,263.974 207.965,262.185 207.965,259.974C207.965,257.764 206.176,255.975 203.966,255.975Z" style="fill:white;fill-rule:nonzero;"/>
        </g>
        <g transform="matrix(0.0976658,0,0,0.0976658,0,14.4428)">
            <path d="M459.933,255.975L443.935,255.975C441.724,255.975 439.935,257.764 439.935,259.974C439.935,262.185 441.724,263.974 443.935,263.974L459.933,263.974C462.143,263.974 463.932,262.185 463.932,259.974C463.932,257.764 462.143,255.975 459.933,255.975Z" style="fill:white;fill-rule:nonzero;"/>
        </g>
        <g transform="matrix(0.0976658,0,0,0.0976658,0,14.4428)">
            <path d="M483.938,255.975L475.93,255.975C473.72,255.975 471.931,257.764 471.931,259.974C471.931,262.185 473.72,263.974 475.93,263.974L483.938,263.974C486.148,263.974 487.937,262.185 487.937,259.974C487.937,257.764 486.148,255.975 483.938,255.975Z" style="fill:white;fill-rule:nonzero;"/>
        </g>
        <g transform="matrix(0.0976658,0,0,0.0976658,0,14.4428)">
            <path d="M427.937,255.975L411.939,255.975C409.728,255.975 407.94,257.764 407.94,259.974C407.94,262.185 409.728,263.974 411.939,263.974L427.937,263.974C430.147,263.974 431.936,262.185 431.936,259.974C431.936,257.764 430.147,255.975 427.937,255.975Z" style="fill:white;fill-rule:nonzero;"/>
        </g>
        <g transform="matrix(0.0976658,0,0,0.0976658,0,14.4428)">
            <path d="M363.946,255.975L347.948,255.975C345.737,255.975 343.948,257.764 343.948,259.974C343.948,262.185 345.737,263.974 347.948,263.974L363.946,263.974C366.156,263.974 367.945,262.185 367.945,259.974C367.945,257.764 366.156,255.975 363.946,255.975Z" style="fill:white;fill-rule:nonzero;"/>
        </g>
        <g transform="matrix(0.0976658,0,0,0.0976658,0,14.4428)">
            <path d="M331.95,255.975L315.952,255.975C313.741,255.975 311.952,257.764 311.952,259.974C311.952,262.185 313.741,263.974 315.952,263.974L331.95,263.974C334.16,263.974 335.949,262.185 335.949,259.974C335.949,257.764 334.16,255.975 331.95,255.975Z" style="fill:white;fill-rule:nonzero;"/>
        </g>
        <g transform="matrix(0.0976658,0,0,0.0976658,0,14.4428)">
            <path d="M299.953,255.975L283.955,255.975C281.744,255.975 279.955,257.764 279.955,259.974C279.955,262.185 281.744,263.974 283.955,263.974L299.954,263.974C302.164,263.974 303.954,262.185 303.953,259.974C303.953,257.764 302.164,255.975 299.953,255.975Z" style="fill:white;fill-rule:nonzero;"/>
        </g>
        <g transform="matrix(0.0976658,0,0,0.0976658,0,14.4428)">
            <path d="M395.941,255.975L379.943,255.975C377.733,255.975 375.944,257.764 375.944,259.974C375.944,262.185 377.733,263.974 379.943,263.974L395.941,263.974C398.152,263.974 399.941,262.185 399.941,259.974C399.941,257.764 398.152,255.975 395.941,255.975Z" style="fill:white;fill-rule:nonzero;"/>
        </g>
        <g transform="matrix(0.0976658,0,0,0.0976658,0,14.4428)">
            <path d="M43.987,463.948L27.989,463.948C25.778,463.948 23.989,465.737 23.989,467.948C23.989,470.158 25.778,471.947 27.989,471.947L43.987,471.947C46.197,471.947 47.986,470.158 47.987,467.948C47.987,465.737 46.197,463.948 43.987,463.948Z" style="fill:white;fill-rule:nonzero;"/>
        </g>
        <g transform="matrix(0.0976658,0,0,0.0976658,0,14.4428)">
            <path d="M235.962,463.948L219.964,463.948C217.753,463.948 215.964,465.737 215.964,467.948C215.964,470.158 217.754,471.947 219.964,471.947L235.962,471.947C238.172,471.947 239.961,470.158 239.962,467.948C239.962,465.737 238.172,463.948 235.962,463.948Z" style="fill:white;fill-rule:nonzero;"/>
        </g>
        <g transform="matrix(0.0976658,0,0,0.0976658,0,14.4428)">
            <path d="M171.97,463.948L155.972,463.948C153.761,463.948 151.972,465.737 151.972,467.948C151.972,470.158 153.761,471.947 155.972,471.947L171.97,471.947C174.181,471.947 175.97,470.158 175.97,467.948C175.97,465.737 174.18,463.948 171.97,463.948Z" style="fill:white;fill-rule:nonzero;"/>
        </g>
        <g transform="matrix(0.0976658,0,0,0.0976658,0,14.4428)">
            <path d="M203.966,463.948L187.968,463.948C185.757,463.948 183.968,465.737 183.968,467.948C183.968,470.158 185.757,471.947 187.968,471.947L203.966,471.947C206.176,471.947 207.965,470.158 207.965,467.948C207.965,465.737 206.176,463.948 203.966,463.948Z" style="fill:white;fill-rule:nonzero;"/>
        </g>
        <g transform="matrix(0.0976658,0,0,0.0976658,0,14.4428)">
            <path d="M139.974,463.948L123.976,463.948C121.766,463.948 119.977,465.737 119.977,467.948C119.977,470.158 121.766,471.947 123.976,471.947L139.974,471.947C142.185,471.947 143.974,470.158 143.974,467.948C143.974,465.737 142.185,463.948 139.974,463.948Z" style="fill:white;fill-rule:nonzero;"/>
        </g>
        <g transform="matrix(0.0976658,0,0,0.0976658,0,14.4428)">
            <path d="M75.983,463.948L59.985,463.948C57.774,463.948 55.985,465.737 55.985,467.948C55.985,470.158 57.774,471.947 59.985,471.947L75.983,471.947C78.193,471.947 79.982,470.158 79.982,467.948C79.982,465.737 78.193,463.948 75.983,463.948Z" style="fill:white;fill-rule:nonzero;"/>
        </g>
        <g transform="matrix(0.0976658,0,0,0.0976658,0,14.4428)">
            <path d="M107.978,463.948L91.98,463.948C89.769,463.948 87.98,465.737 87.98,467.948C87.98,470.158 89.77,471.947 91.98,471.947L107.978,471.947C110.189,471.947 111.978,470.158 111.978,467.948C111.978,465.737 110.188,463.948 107.978,463.948Z" style="fill:white;fill-rule:nonzero;"/>
        </g>
        <g transform="matrix(0.0976658,0,0,0.0976658,0,14.4428)">
            <path d="M299.953,463.948L283.955,463.948C281.744,463.948 279.955,465.737 279.955,467.948C279.955,470.158 281.744,471.947 283.955,471.947L299.954,471.947C302.164,471.947 303.954,470.158 303.953,467.948C303.953,465.737 302.164,463.948 299.953,463.948Z" style="fill:white;fill-rule:nonzero;"/>
        </g>
        <g transform="matrix(0.0976658,0,0,0.0976658,0,14.4428)">
            <path d="M459.933,463.948L443.935,463.948C441.724,463.948 439.935,465.737 439.935,467.948C439.935,470.158 441.724,471.947 443.935,471.947L459.933,471.947C462.143,471.947 463.932,470.158 463.932,467.948C463.932,465.737 462.143,463.948 459.933,463.948Z" style="fill:white;fill-rule:nonzero;"/>
        </g>
        <g transform="matrix(0.0976658,0,0,0.0976658,0,14.4428)">
            <path d="M483.938,463.948L475.93,463.948C473.72,463.948 471.931,465.737 471.931,467.948C471.931,470.158 473.72,471.947 475.93,471.947L483.938,471.947C486.148,471.947 487.937,470.158 487.937,467.948C487.937,465.737 486.148,463.948 483.938,463.948Z" style="fill:white;fill-rule:nonzero;"/>
        </g>
        <g transform="matrix(0.0976658,0,0,0.0976658,0,14.4428)">
            <path d="M267.957,463.948L251.959,463.948C249.749,463.948 247.96,465.737 247.96,467.948C247.96,470.158 249.749,471.947 251.959,471.947L267.957,471.947C270.168,471.947 271.957,470.158 271.957,467.948C271.957,465.737 270.168,463.948 267.957,463.948Z" style="fill:white;fill-rule:nonzero;"/>
        </g>
        <g transform="matrix(0.0976658,0,0,0.0976658,0,14.4428)">
            <path d="M427.937,463.948L411.939,463.948C409.728,463.948 407.94,465.737 407.94,467.948C407.94,470.158 409.728,471.947 411.939,471.947L427.937,471.947C430.147,471.947 431.936,470.158 431.936,467.948C431.936,465.737 430.147,463.948 427.937,463.948Z" style="fill:white;fill-rule:nonzero;"/>
        </g>
        <g transform="matrix(0.0976658,0,0,0.0976658,0,14.4428)">
            <path d="M331.95,463.948L315.952,463.948C313.741,463.948 311.952,465.737 311.952,467.948C311.952,470.158 313.741,471.947 315.952,471.947L331.95,471.947C334.16,471.947 335.949,470.158 335.949,467.948C335.949,465.737 334.16,463.948 331.95,463.948Z" style="fill:white;fill-rule:nonzero;"/>
        </g>
        <g transform="matrix(0.0976658,0,0,0.0976658,0,14.4428)">
            <path d="M363.946,463.948L347.948,463.948C345.737,463.948 343.948,465.737 343.948,467.948C343.948,470.158 345.737,471.947 347.948,471.947L363.946,471.947C366.156,471.947 367.945,470.158 367.945,467.948C367.945,465.737 366.156,463.948 363.946,463.948Z" style="fill:white;fill-rule:nonzero;"/>
        </g>
        <g transform="matrix(0.0976658,0,0,0.0976658,0,14.4428)">
            <path d="M395.941,463.948L379.943,463.948C377.733,463.948 375.944,465.737 375.944,467.948C375.944,470.158 377.733,471.947 379.943,471.947L395.941,471.947C398.152,471.947 399.941,470.158 399.941,467.948C399.941,465.737 398.152,463.948 395.941,463.948Z" style="fill:white;fill-rule:nonzero;"/>
        </g>
        <g transform="matrix(0.0976658,0,0,0.0976658,0,14.4428)">
            <path d="M255.967,335.964C219.128,335.964 179.977,345.775 179.977,363.961C179.977,382.145 219.128,391.957 255.967,391.957C292.806,391.957 331.957,382.146 331.957,363.961C331.957,345.776 292.806,335.964 255.967,335.964ZM255.967,383.958C213.839,383.958 187.976,372.311 187.976,363.961C187.976,355.609 213.839,343.963 255.967,343.963C298.094,343.963 323.958,355.61 323.958,363.961C323.958,372.311 298.094,383.958 255.967,383.958Z" style="fill:white;fill-rule:nonzero;"/>
        </g>
        <g transform="matrix(0.0976658,0,0,0.0976658,0,14.4428)">
            <path d="M287.963,359.961L223.971,359.961C221.76,359.961 219.971,361.75 219.971,363.961C219.971,366.171 221.76,367.96 223.971,367.96L287.963,367.96C290.173,367.96 291.962,366.171 291.962,363.961C291.962,361.75 290.173,359.961 287.963,359.961Z" style="fill:white;fill-rule:nonzero;"/>
        </g>
    </g>
</svg>
