<?xml version="1.0" encoding="UTF-8" standalone="no"?>
<!DOCTYPE svg PUBLIC "-//W3C//DTD SVG 1.1//EN" "http://www.w3.org/Graphics/SVG/1.1/DTD/svg11.dtd">
<svg width="100%" height="100%" viewBox="0 0 50 50" version="1.1" xmlns="http://www.w3.org/2000/svg" xmlns:xlink="http://www.w3.org/1999/xlink" xml:space="preserve" xmlns:serif="http://www.serif.com/" style="fill-rule:evenodd;clip-rule:evenodd;stroke-linejoin:round;stroke-miterlimit:2;">
    <g transform="matrix(0.589661,0,0,0.589661,-126.435,-126.561)">
        <g transform="matrix(0.102809,0,0,0.102809,229.681,229.68)">
            <path d="M258.23,360.093L253.769,360.093C249.626,360.093 246.269,363.451 246.269,367.593C246.269,371.735 249.626,375.093 253.769,375.093L258.23,375.093C262.373,375.093 265.73,371.735 265.73,367.593C265.731,363.451 262.373,360.093 258.23,360.093Z" style="fill:white;fill-rule:nonzero;"/>
        </g>
        <g transform="matrix(0.102809,0,0,0.102809,229.681,229.68)">
            <path d="M275.113,155.134C275.153,155.219 275.196,155.311 275.242,155.409C275.2,155.318 275.157,155.226 275.113,155.134Z" style="fill:white;fill-rule:nonzero;"/>
        </g>
        <g transform="matrix(0.102809,0,0,0.102809,229.681,229.68)">
            <path d="M275.243,155.409C280.056,165.615 282.213,170.191 282.802,171.44C281.8,169.315 276.813,158.738 275.243,155.409Z" style="fill:white;fill-rule:nonzero;"/>
        </g>
        <g transform="matrix(0.102809,0,0,0.102809,229.681,229.68)">
            <path d="M275.008,154.911C275.044,154.987 275.078,155.06 275.114,155.135C275.075,155.054 275.04,154.979 275.008,154.911Z" style="fill:white;fill-rule:nonzero;"/>
        </g>
        <g transform="matrix(0.102809,0,0,0.102809,229.681,229.68)">
            <path d="M282.889,171.624C282.917,171.683 282.94,171.733 282.955,171.764C282.94,171.732 282.918,171.685 282.889,171.624Z" style="fill:white;fill-rule:nonzero;"/>
        </g>
        <g transform="matrix(0.102809,0,0,0.102809,229.681,229.68)">
            <path d="M491.666,194.072C495.809,194.072 499.166,190.714 499.166,186.572L499.166,24.469C499.167,10.977 488.19,0 474.698,0L37.301,0C23.809,0 12.832,10.977 12.832,24.469L12.832,391.153C12.832,404.645 23.809,415.621 37.301,415.621L199.759,415.621L199.759,458.631L175.249,458.631C163.24,458.631 153.472,468.401 153.472,480.407L153.472,490.223C153.472,502.231 163.242,511.999 175.249,511.999L235.458,511.999C239.601,511.999 242.958,508.641 242.958,504.499C242.958,500.357 239.601,496.999 235.458,496.999L175.249,496.999C171.513,496.999 168.473,493.959 168.473,490.224L168.473,480.408C168.473,476.672 171.513,473.633 175.249,473.633L332.29,473.633C336.026,473.633 339.066,476.673 339.066,480.408L339.066,490.224C339.066,493.96 336.026,496.999 332.29,496.999L270.46,496.999C266.317,496.999 262.96,500.357 262.96,504.499C262.96,508.641 266.317,511.999 270.46,511.999L332.29,511.999C344.299,511.999 354.067,502.229 354.067,490.223L354.067,480.407C354.067,468.399 344.297,458.631 332.29,458.631L307.78,458.631L307.78,415.621L474.7,415.621C488.192,415.621 499.169,404.644 499.169,391.153L499.169,221.574C499.169,217.432 495.812,214.074 491.669,214.074C487.526,214.074 484.169,217.432 484.169,221.574L484.169,319.565L464.295,319.565L464.295,54.582C464.295,44.903 456.42,37.029 446.742,37.029L65.26,37.029C55.581,37.029 47.707,44.904 47.707,54.582L47.707,319.564L27.833,319.564L27.833,24.469C27.833,19.249 32.08,15.001 37.301,15.001L474.698,15.001C479.918,15.001 484.166,19.248 484.166,24.469L484.166,186.572C484.166,190.714 487.523,194.072 491.666,194.072ZM292.778,458.631L214.759,458.631L214.759,415.621L292.778,415.621L292.778,458.631ZM62.708,54.582C62.708,53.175 63.853,52.03 65.26,52.03L446.738,52.03C448.145,52.03 449.29,53.175 449.29,54.582L449.29,319.564L403.543,319.564L403.543,85.374C403.543,78.871 398.252,73.579 391.748,73.579L327.214,73.579C320.711,73.579 315.419,78.87 315.419,85.374L315.419,319.564L297.019,319.564L297.019,203.277C297.019,202.173 296.768,201.071 296.303,200.078C277.281,159.736 273.708,152.157 275.006,154.91C272.119,148.787 268.306,140.702 263.339,130.166C259.198,121.386 246.713,121.396 242.576,130.166C239.048,137.648 212.555,193.835 209.612,200.077C209.135,201.087 208.896,202.244 208.896,203.276L208.896,319.563L188.892,319.563L190.446,278.401C190.634,273.418 188.833,268.695 185.374,265.104C183.964,263.639 182.348,262.459 180.6,261.556L180.6,239.838C188.731,239.284 195.184,232.509 195.184,224.239L195.184,217.355C195.184,209.084 188.732,202.31 180.6,201.756L180.6,199.088L199,180.428C203.665,175.698 204.336,168.279 200.595,162.788L161.167,104.929C157.306,99.258 148.882,99.258 145.02,104.928L105.592,162.789C101.851,168.28 102.522,175.699 107.187,180.429L125.586,199.088L125.586,201.757C117.454,202.311 111.003,209.086 111.003,217.356L111.003,224.24C111.003,232.511 117.454,239.285 125.586,239.839L125.586,261.557C123.838,262.46 122.222,263.64 120.813,265.104C117.354,268.696 115.553,273.417 115.741,278.401L117.295,319.563L62.708,319.563L62.708,54.582ZM376.413,137.777L388.543,137.777L388.543,171.973L376.413,171.973C372.27,171.973 368.913,175.331 368.913,179.473C368.913,183.615 372.27,186.973 376.413,186.973L388.543,186.973L388.543,221.169L376.413,221.169C372.27,221.169 368.913,224.527 368.913,228.669C368.913,232.811 372.27,236.169 376.413,236.169L388.543,236.169L388.543,270.365L376.413,270.365C372.27,270.365 368.913,273.723 368.913,277.865C368.913,282.007 372.27,285.365 376.413,285.365L388.543,285.365L388.543,319.561L330.421,319.561L330.421,88.58L388.543,88.58L388.543,122.776L376.413,122.776C372.27,122.776 368.913,126.134 368.913,130.276C368.913,134.419 372.27,137.777 376.413,137.777ZM228.226,195.777L234.665,182.121L271.25,182.121L277.689,195.777L228.226,195.777ZM245.458,210.778L245.458,319.565L223.898,319.565L223.898,210.778L245.458,210.778ZM241.738,167.119L252.958,143.325L264.178,167.119L241.738,167.119ZM260.458,210.778L282.018,210.778L282.018,319.565L260.458,319.565L260.458,210.778ZM172.278,274.536C173.455,274.536 174.218,275.146 174.569,275.511C174.92,275.875 175.501,276.66 175.456,277.837L173.881,319.566L132.306,319.566L130.73,277.836C130.685,276.66 131.266,275.875 131.617,275.511C131.968,275.147 132.731,274.536 133.908,274.536L172.278,274.536ZM140.586,259.535L140.586,239.893L165.599,239.893L165.599,259.535L140.586,259.535ZM126.655,224.892C126.313,224.892 126.003,224.581 126.003,224.24L126.003,217.356C126.003,217.015 126.314,216.704 126.655,216.704L179.528,216.704C179.87,216.704 180.181,217.015 180.181,217.356L180.181,224.24C180.181,224.581 179.869,224.892 179.528,224.892L126.655,224.892ZM169.535,188.942C165.141,193.395 165.598,198.175 165.598,201.701L140.585,201.701C140.585,198.309 141.089,193.444 136.649,188.943L118.477,170.514L145.591,130.724L145.591,162.245L145.593,162.245C141.857,162.673 138.955,165.842 138.955,169.692C138.955,173.834 142.312,177.192 146.455,177.192L159.339,177.192C163.482,177.192 166.839,173.834 166.839,169.692C166.839,165.978 164.138,162.903 160.594,162.305L160.594,130.724L187.708,170.514L169.535,188.942ZM484.166,334.565L484.166,391.151C484.166,396.371 479.919,400.619 474.698,400.619L37.301,400.619C32.081,400.619 27.833,396.372 27.833,391.151L27.833,334.565L484.166,334.565Z" style="fill:white;fill-rule:nonzero;"/>
        </g>
        <g transform="matrix(0.102809,0,0,0.102809,229.681,229.68)">
            <path d="M282.802,171.44C282.836,171.512 282.864,171.572 282.889,171.624C282.865,171.574 282.836,171.513 282.802,171.44Z" style="fill:white;fill-rule:nonzero;"/>
        </g>
        <g transform="matrix(0.102809,0,0,0.102809,229.681,229.68)">
            <path d="M282.955,171.764C282.985,171.828 282.987,171.832 282.955,171.764Z" style="fill:white;fill-rule:nonzero;"/>
        </g>
    </g>
</svg>
